# xmcd
#
# Track frame offsets:
#	150
#	14775
#	30150
#	42150
#	57525
#	74100
#	85800
#	101400
#	119700
#	136350
#	153975
#	170250
#	189225
#	204225
#	220875
#
# Disc length: 3121 seconds
#
# Revision: 0
# Processed by: cddbd v1.5.2PL0 Copyright (c) Steve Scherf et al.
# Submitted via: audiograbber 1.83.01
#
DISCID=d20c2f0f
DTITLE=DK Karaoke - DKG3042
DYEAR=1980
DGENRE=Country
TTITLE0=McDowell, Ronnie - Your Gonna Ruin My Bad Reputation
TTITLE1=Crowell, Rodney - I Couldn't Leave You If I Tried
TTITLE2=Skaggs, Ricky - Country Boy
TTITLE3=Dean, Billy - Somewhere In My Broken Heart
TTITLE4=Johnson, Michael - Give Me Wings
TTITLE5=Conlee, John - Busted
TTITLE6=Milsap, Ronnie - There's No Getting Over Me
TTITLE7=Milsap, Ronnie - What A Difference You've Made In My Life
TTITLE8=Milsap, Ronnie - It Was Almost Like A Song
TTITLE9=Milsap, Ronnie - Any Day Now
TTITLE10=Milsap, Ronnie - I Wouldn't Have Missed It For The World
TTITLE11=Williams, Don - I Believe In You
TTITLE12=Rabbitt, Eddie - I Love A Rainy Night
TTITLE13=Rabbitt, Eddie - On Second Thought
TTITLE14=McDaniel, Mel - Baby's Got Her Blue Jeans On
EXTD=
EXTT0=
EXTT1=
EXTT2=
EXTT3=
EXTT4=
EXTT5=
EXTT6=
EXTT7=
EXTT8=
EXTT9=
EXTT10=
EXTT11=
EXTT12=
EXTT13=
EXTT14=
PLAYORDER=
